<svg width="52" height="52" viewBox="0 0 52 52" fill="none" xmlns="http://www.w3.org/2000/svg">
<rect width="52" height="52" rx="2" fill="#EAE6F3"/>
<g clip-path="url(#clip0_115_170)">
<path d="M12.0005 27.9999C11.724 27.9999 11.5005 27.7764 11.5005 27.4999V25.5664C11.5005 25.2899 11.724 25.0664 12.0005 25.0664C12.277 25.0664 12.5005 25.2899 12.5005 25.5664V27.4999C12.5005 27.7764 12.277 27.9999 12.0005 27.9999Z" fill="#7F56D9"/>
<path d="M19.0005 28C18.724 28 18.5005 27.7765 18.5005 27.5V25.25C18.5005 24.9735 18.724 24.75 19.0005 24.75C19.277 24.75 19.5005 24.9735 19.5005 25.25V27.5C19.5005 27.7765 19.277 28 19.0005 28Z" fill="#7F56D9"/>
<path d="M19.0005 25.75C18.724 25.75 18.5005 25.5265 18.5005 25.25C18.5005 23.458 17.0425 22 15.25 22C13.458 22 12.0005 23.458 12.0005 25.25C12.0005 25.5265 11.777 25.75 11.5005 25.75C11.224 25.75 11.0005 25.5265 11.0005 25.25C11.0005 22.9065 12.907 21 15.25 21C17.594 21 19.5005 22.9065 19.5005 25.25C19.5005 25.5265 19.277 25.75 19.0005 25.75Z" fill="#7F56D9"/>
<path d="M19.001 26.4355C18.8505 26.4355 18.702 26.368 18.6035 26.2395C17.638 24.978 17.375 25.083 16.3965 25.4705C15.4575 25.842 14.0385 26.4055 11.4225 25.9915C11.15 25.9485 10.9635 25.693 11.007 25.42C11.05 25.1475 11.307 24.96 11.579 25.0045C13.925 25.3755 15.1405 24.893 16.0285 24.541C17.2325 24.064 18.0405 23.86 19.3975 25.6315C19.5655 25.8505 19.524 26.1645 19.3045 26.3325C19.214 26.402 19.107 26.4355 19.001 26.4355Z" fill="#7F56D9"/>
<path d="M16.9999 25.2386C16.9264 25.2386 16.8509 25.2221 16.7804 25.1871C16.5324 25.0656 16.4304 24.7656 16.5519 24.5181L17.5519 22.4821C17.6734 22.2341 17.9724 22.1316 18.2209 22.2536C18.4689 22.3751 18.5709 22.6751 18.4494 22.9226L17.4494 24.9586C17.3624 25.1356 17.1844 25.2386 16.9999 25.2386Z" fill="#7F56D9"/>
<path d="M11.0005 33.998C10.724 33.998 10.5005 33.7745 10.5005 33.498C10.5005 32.395 11.3975 31.498 12.5005 31.498C12.777 31.498 13.0005 31.7215 13.0005 31.998C13.0005 32.2745 12.777 32.498 12.5005 32.498C11.949 32.498 11.5005 32.9465 11.5005 33.498C11.5005 33.7745 11.277 33.998 11.0005 33.998Z" fill="#7F56D9"/>
<path d="M14.0005 32.501H12.5005C12.224 32.501 12.0005 32.2775 12.0005 32.001C12.0005 31.7245 12.224 31.501 12.5005 31.501H14.0005C14.277 31.501 14.5005 31.7245 14.5005 32.001C14.5005 32.2775 14.277 32.501 14.0005 32.501Z" fill="#7F56D9"/>
<path d="M11.0005 36C10.724 36 10.5005 35.7765 10.5005 35.5V33.498C10.5005 33.2215 10.724 32.998 11.0005 32.998C11.277 32.998 11.5005 33.2215 11.5005 33.498V35.5C11.5005 35.7765 11.277 36 11.0005 36Z" fill="#7F56D9"/>
<path d="M20.0005 33.998C19.724 33.998 19.5005 33.7745 19.5005 33.498C19.5005 32.9465 19.052 32.498 18.5005 32.498C18.224 32.498 18.0005 32.2745 18.0005 31.998C18.0005 31.7215 18.224 31.498 18.5005 31.498C19.6035 31.498 20.5005 32.395 20.5005 33.498C20.5005 33.7745 20.277 33.998 20.0005 33.998Z" fill="#7F56D9"/>
<path d="M18.5005 32.501H17.0005C16.724 32.501 16.5005 32.2775 16.5005 32.001C16.5005 31.7245 16.724 31.501 17.0005 31.501H18.5005C18.777 31.501 19.0005 31.7245 19.0005 32.001C19.0005 32.2775 18.777 32.501 18.5005 32.501Z" fill="#7F56D9"/>
<path d="M20.0005 36C19.724 36 19.5005 35.7765 19.5005 35.5V33.498C19.5005 33.2215 19.724 32.998 20.0005 32.998C20.277 32.998 20.5005 33.2215 20.5005 33.498V35.5C20.5005 35.7765 20.277 36 20.0005 36Z" fill="#7F56D9"/>
<path d="M14.0005 32.5009C13.724 32.5009 13.5005 32.2774 13.5005 32.0009V30.6589C13.5005 30.3824 13.724 30.1589 14.0005 30.1589C14.277 30.1589 14.5005 30.3824 14.5005 30.6589V32.0009C14.5005 32.2774 14.277 32.5009 14.0005 32.5009Z" fill="#7F56D9"/>
<path d="M17.0005 32.4979C16.724 32.4979 16.5005 32.2744 16.5005 31.9979V30.6589C16.5005 30.3824 16.724 30.1589 17.0005 30.1589C17.277 30.1589 17.5005 30.3824 17.5005 30.6589V31.9979C17.5005 32.2744 17.277 32.4979 17.0005 32.4979Z" fill="#7F56D9"/>
<path d="M15.5005 31.496C13.295 31.496 11.5005 29.7025 11.5005 27.498C11.5005 27.2215 11.724 26.998 12.0005 26.998C12.277 26.998 12.5005 27.2215 12.5005 27.498C12.5005 29.1515 13.846 30.496 15.5005 30.496C17.155 30.496 18.5005 29.1515 18.5005 27.498C18.5005 27.2215 18.724 26.998 19.0005 26.998C19.277 26.998 19.5005 27.2215 19.5005 27.498C19.5005 29.7025 17.706 31.496 15.5005 31.496Z" fill="#7F56D9"/>
<path d="M32.9995 28C32.723 28 32.4995 27.7765 32.4995 27.5V23.498C32.4995 23.2215 32.723 22.998 32.9995 22.998C33.276 22.998 33.4995 23.2215 33.4995 23.498V27.5C33.4995 27.7765 33.276 28 32.9995 28Z" fill="#7F56D9"/>
<path d="M39.9995 28C39.723 28 39.4995 27.7765 39.4995 27.5V27.3535C39.4995 27.077 39.723 26.8535 39.9995 26.8535C40.276 26.8535 40.4995 27.077 40.4995 27.3535V27.5C40.4995 27.7765 40.276 28 39.9995 28Z" fill="#7F56D9"/>
<path d="M31.9995 33.998C31.723 33.998 31.4995 33.7745 31.4995 33.498C31.4995 32.395 32.3965 31.498 33.4995 31.498C33.776 31.498 33.9995 31.7215 33.9995 31.998C33.9995 32.2745 33.776 32.498 33.4995 32.498C32.948 32.498 32.4995 32.9465 32.4995 33.498C32.4995 33.7745 32.276 33.998 31.9995 33.998Z" fill="#7F56D9"/>
<path d="M34.9995 32.501H33.4995C33.223 32.501 32.9995 32.2775 32.9995 32.001C32.9995 31.7245 33.223 31.501 33.4995 31.501H34.9995C35.276 31.501 35.4995 31.7245 35.4995 32.001C35.4995 32.2775 35.276 32.501 34.9995 32.501Z" fill="#7F56D9"/>
<path d="M31.9995 36C31.723 36 31.4995 35.7765 31.4995 35.5V33.498C31.4995 33.2215 31.723 32.998 31.9995 32.998C32.276 32.998 32.4995 33.2215 32.4995 33.498V35.5C32.4995 35.7765 32.276 36 31.9995 36Z" fill="#7F56D9"/>
<path d="M40.9995 33.998C40.723 33.998 40.4995 33.7745 40.4995 33.498C40.4995 32.9465 40.051 32.498 39.4995 32.498C39.223 32.498 38.9995 32.2745 38.9995 31.998C38.9995 31.7215 39.223 31.498 39.4995 31.498C40.6025 31.498 41.4995 32.395 41.4995 33.498C41.4995 33.7745 41.276 33.998 40.9995 33.998Z" fill="#7F56D9"/>
<path d="M39.4995 32.501H37.9995C37.723 32.501 37.4995 32.2775 37.4995 32.001C37.4995 31.7245 37.723 31.501 37.9995 31.501H39.4995C39.776 31.501 39.9995 31.7245 39.9995 32.001C39.9995 32.2775 39.776 32.501 39.4995 32.501Z" fill="#7F56D9"/>
<path d="M40.9995 36C40.723 36 40.4995 35.7765 40.4995 35.5V33.498C40.4995 33.2215 40.723 32.998 40.9995 32.998C41.276 32.998 41.4995 33.2215 41.4995 33.498V35.5C41.4995 35.7765 41.276 36 40.9995 36Z" fill="#7F56D9"/>
<path d="M34.9995 32.5009C34.723 32.5009 34.4995 32.2774 34.4995 32.0009V30.6589C34.4995 30.3824 34.723 30.1589 34.9995 30.1589C35.276 30.1589 35.4995 30.3824 35.4995 30.6589V32.0009C35.4995 32.2774 35.276 32.5009 34.9995 32.5009Z" fill="#7F56D9"/>
<path d="M37.9995 32.4979C37.723 32.4979 37.4995 32.2744 37.4995 31.9979V30.6589C37.4995 30.3824 37.723 30.1589 37.9995 30.1589C38.276 30.1589 38.4995 30.3824 38.4995 30.6589V31.9979C38.4995 32.2744 38.276 32.4979 37.9995 32.4979Z" fill="#7F56D9"/>
<path d="M36.4995 31.496C34.294 31.496 32.4995 29.7025 32.4995 27.498C32.4995 27.2215 32.723 26.998 32.9995 26.998C33.276 26.998 33.4995 27.2215 33.4995 27.498C33.4995 29.1515 34.845 30.496 36.4995 30.496C38.154 30.496 39.4995 29.1515 39.4995 27.498C39.4995 27.2215 39.723 26.998 39.9995 26.998C40.276 26.998 40.4995 27.2215 40.4995 27.498C40.4995 29.7025 38.705 31.496 36.4995 31.496Z" fill="#7F56D9"/>
<path d="M20 39.5C19.7235 39.5 19.5 39.2765 19.5 39C19.5 37.3455 20.8455 36 22.5 36C22.7765 36 23 36.2235 23 36.5C23 36.7765 22.7765 37 22.5 37C21.397 37 20.5 37.897 20.5 39C20.5 39.2765 20.2765 39.5 20 39.5Z" fill="#7F56D9"/>
<path d="M24 37H22.5C22.2235 37 22 36.7765 22 36.5C22 36.2235 22.2235 36 22.5 36H24C24.2765 36 24.5 36.2235 24.5 36.5C24.5 36.7765 24.2765 37 24 37Z" fill="#7F56D9"/>
<path d="M20 41.5C19.7235 41.5 19.5 41.2765 19.5 41V39C19.5 38.7235 19.7235 38.5 20 38.5C20.2765 38.5 20.5 38.7235 20.5 39V41C20.5 41.2765 20.2765 41.5 20 41.5Z" fill="#7F56D9"/>
<path d="M32 39.5C31.7235 39.5 31.5 39.2765 31.5 39C31.5 37.897 30.603 37 29.5 37C29.2235 37 29 36.7765 29 36.5C29 36.2235 29.2235 36 29.5 36C31.1545 36 32.5 37.3455 32.5 39C32.5 39.2765 32.2765 39.5 32 39.5Z" fill="#7F56D9"/>
<path d="M29.5 37H28C27.7235 37 27.5 36.7765 27.5 36.5C27.5 36.2235 27.7235 36 28 36H29.5C29.7765 36 30 36.2235 30 36.5C30 36.7765 29.7765 37 29.5 37Z" fill="#7F56D9"/>
<path d="M32 41.5C31.7235 41.5 31.5 41.2765 31.5 41V39C31.5 38.7235 31.7235 38.5 32 38.5C32.2765 38.5 32.5 38.7235 32.5 39V41C32.5 41.2765 32.2765 41.5 32 41.5Z" fill="#7F56D9"/>
<path d="M24 37C23.7235 37 23.5 36.7765 23.5 36.5V34.532C23.5 34.2555 23.7235 34.032 24 34.032C24.2765 34.032 24.5 34.2555 24.5 34.532V36.5C24.5 36.7765 24.2765 37 24 37Z" fill="#7F56D9"/>
<path d="M28 37C27.7235 37 27.5 36.7765 27.5 36.5V34.532C27.5 34.2555 27.7235 34.032 28 34.032C28.2765 34.032 28.5 34.2555 28.5 34.532V36.5C28.5 36.7765 28.2765 37 28 37Z" fill="#7F56D9"/>
<path d="M25.9995 35.5C23.2425 35.5 21 33.2575 21 30.501C21 30.2245 21.2235 30.001 21.5 30.001C21.7765 30.001 22 30.2245 22 30.501C22 32.706 23.794 34.5 25.9995 34.5C28.2055 34.5 30 32.706 30 30.501C30 30.2245 30.2235 30.001 30.5 30.001C30.7765 30.001 31 30.2245 31 30.501C31 33.2575 28.757 35.5 25.9995 35.5Z" fill="#7F56D9"/>
<path d="M21.5 31.0255C21.2235 31.0255 21 30.802 21 30.5255V27.5C21 27.2235 21.2235 27 21.5 27C21.7765 27 22 27.2235 22 27.5V30.5255C22 30.802 21.7765 31.0255 21.5 31.0255Z" fill="#7F56D9"/>
<path d="M30.5 31.001C30.2235 31.001 30 30.7775 30 30.501V27.5C30 27.2235 30.2235 27 30.5 27C30.7765 27 31 27.2235 31 27.5V30.501C31 30.7775 30.7765 31.001 30.5 31.001Z" fill="#7F56D9"/>
<path d="M30.5 28C30.2235 28 30 27.7765 30 27.5C30 26.673 29.327 26 28.5 26C28.2235 26 28 25.7765 28 25.5C28 25.2235 28.2235 25 28.5 25C29.8785 25 31 26.1215 31 27.5C31 27.7765 30.7765 28 30.5 28Z" fill="#7F56D9"/>
<path d="M28.5 26C28.2235 26 28 25.7765 28 25.5V23.5C28 23.2235 28.2235 23 28.5 23C28.7765 23 29 23.2235 29 23.5V25.5C29 25.7765 28.7765 26 28.5 26Z" fill="#7F56D9"/>
<path d="M28.5 24.0071H25.5C25.2235 24.0071 25 23.7836 25 23.5071C25 23.2306 25.2235 23.0071 25.5 23.0071H28.5C28.7765 23.0071 29 23.2306 29 23.5071C29 23.7836 28.7765 24.0071 28.5 24.0071Z" fill="#7F56D9"/>
<path d="M21.5 28C21.2235 28 21 27.7765 21 27.5C21 25.0185 23.0185 23 25.5 23C25.7765 23 26 23.2235 26 23.5C26 23.7765 25.7765 24 25.5 24C23.5705 24 22 25.5705 22 27.5C22 27.7765 21.7765 28 21.5 28Z" fill="#7F56D9"/>
<path d="M30.4996 29.5126C30.4036 29.5126 30.3061 29.4846 30.2201 29.4271L28.7201 28.4146C28.4911 28.2596 28.4311 27.9491 28.5851 27.7201C28.7401 27.4911 29.0496 27.4321 29.2796 27.5851L30.7796 28.5976C31.0086 28.7526 31.0686 29.0631 30.9146 29.2921C30.8181 29.4356 30.6601 29.5126 30.4996 29.5126Z" fill="#7F56D9"/>
<path d="M26.2501 29.0001C24.4441 29.0001 22.9066 28.4961 22.8426 28.4746C22.5811 28.3871 22.4391 28.1046 22.5256 27.8426C22.6126 27.5811 22.8951 27.4391 23.1576 27.5251C23.1721 27.5306 24.6116 28.0001 26.2501 28.0001C27.8391 28.0001 28.7701 27.5561 28.7796 27.5516C29.0261 27.4316 29.3266 27.5331 29.4481 27.7801C29.5696 28.0271 29.4696 28.3251 29.2236 28.4481C29.1776 28.4701 28.0931 29.0001 26.2501 29.0001Z" fill="#7F56D9"/>
<path d="M21.5006 29.5126C21.3401 29.5126 21.1821 29.4356 21.0856 29.2926C20.9311 29.0636 20.9916 28.7531 21.2206 28.5981L22.7206 27.5856C22.9501 27.4321 23.2601 27.4916 23.4151 27.7206C23.5696 27.9496 23.5091 28.2601 23.2801 28.4151L21.7801 29.4276C21.6941 29.4851 21.5966 29.5126 21.5006 29.5126Z" fill="#7F56D9"/>
<path d="M40.9995 25.498C40.723 25.498 40.4995 25.2745 40.4995 24.998C40.4995 23.0685 38.929 21.498 36.9995 21.498C36.1085 21.498 35.3185 21.982 34.8125 22.388C34.5965 22.561 34.2825 22.526 34.1095 22.311C33.9365 22.0955 33.9715 21.7805 34.1865 21.608C35.0915 20.882 36.064 20.498 36.9995 20.498C39.481 20.498 41.4995 22.5165 41.4995 24.998C41.4995 25.2745 41.276 25.498 40.9995 25.498Z" fill="#7F56D9"/>
<path d="M40.9995 30.498C40.723 30.498 40.4995 30.2745 40.4995 29.998C40.4995 28.0685 38.929 26.498 36.9995 26.498C36.723 26.498 36.4995 26.2745 36.4995 25.998C36.4995 25.7215 36.723 25.498 36.9995 25.498C39.481 25.498 41.4995 27.5165 41.4995 29.998C41.4995 30.2745 41.276 30.498 40.9995 30.498Z" fill="#7F56D9"/>
<path d="M32.9995 26.498C32.723 26.498 32.4995 26.2745 32.4995 25.998C32.4995 25.7215 32.723 25.498 32.9995 25.498C33.551 25.498 33.9995 25.0495 33.9995 24.498C33.9995 24.2215 34.223 23.998 34.4995 23.998C34.776 23.998 34.9995 24.2215 34.9995 24.498C34.9995 25.601 34.1025 26.498 32.9995 26.498Z" fill="#7F56D9"/>
<path d="M32.9995 24.0049C32.723 24.0049 32.4995 23.7814 32.4995 23.5049C32.4995 22.4019 33.3965 21.5049 34.4995 21.5049C34.776 21.5049 34.9995 21.7284 34.9995 22.0049C34.9995 22.2814 34.776 22.5049 34.4995 22.5049C33.948 22.5049 33.4995 22.9534 33.4995 23.5049C33.4995 23.7814 33.276 24.0049 32.9995 24.0049Z" fill="#7F56D9"/>
<path d="M35.9995 26.498C34.8965 26.498 33.9995 25.601 33.9995 24.498C33.9995 24.2215 34.223 23.998 34.4995 23.998C34.776 23.998 34.9995 24.2215 34.9995 24.498C34.9995 25.0495 35.448 25.498 35.9995 25.498C36.276 25.498 36.4995 25.7215 36.4995 25.998C36.4995 26.2745 36.276 26.498 35.9995 26.498Z" fill="#7F56D9"/>
<path d="M34.4995 24.998C34.223 24.998 33.9995 24.7745 33.9995 24.498V21.998C33.9995 21.7215 34.223 21.498 34.4995 21.498C34.776 21.498 34.9995 21.7215 34.9995 21.998V24.498C34.9995 24.7745 34.776 24.998 34.4995 24.998Z" fill="#7F56D9"/>
<path d="M40.9995 30.498C40.723 30.498 40.4995 30.2745 40.4995 29.998V24.998C40.4995 24.7215 40.723 24.498 40.9995 24.498C41.276 24.498 41.4995 24.7215 41.4995 24.998V29.998C41.4995 30.2745 41.276 30.498 40.9995 30.498Z" fill="#7F56D9"/>
<path d="M36.9995 26.498H35.9995C35.723 26.498 35.4995 26.2745 35.4995 25.998C35.4995 25.7215 35.723 25.498 35.9995 25.498H36.9995C37.276 25.498 37.4995 25.7215 37.4995 25.998C37.4995 26.2745 37.276 26.498 36.9995 26.498Z" fill="#7F56D9"/>
<path d="M11.5005 25.998C11.224 25.998 11.0005 25.7745 11.0005 25.498V25.25C11.0005 24.9735 11.224 24.75 11.5005 24.75C11.777 24.75 12.0005 24.9735 12.0005 25.25V25.498C12.0005 25.7745 11.777 25.998 11.5005 25.998Z" fill="#7F56D9"/>
<path d="M24.9994 37.4971C24.9249 37.4971 24.8489 37.4806 24.7774 37.4451L23.7774 36.9481C23.5304 36.8251 23.4294 36.5251 23.5524 36.2776C23.6749 36.0306 23.9739 35.9286 24.2229 36.0526L25.2229 36.5496C25.4699 36.6726 25.5709 36.9726 25.4479 37.2201C25.3604 37.3956 25.1834 37.4971 24.9994 37.4971Z" fill="#7F56D9"/>
<path d="M25.0006 37.497C24.8171 37.497 24.6401 37.3955 24.5526 37.22C24.4291 36.973 24.5296 36.6725 24.7766 36.5495L25.7766 36.0505C26.0251 35.926 26.3241 36.028 26.4471 36.2745C26.5706 36.5215 26.4701 36.822 26.2231 36.945L25.2231 37.444C25.1516 37.4805 25.0751 37.497 25.0006 37.497Z" fill="#7F56D9"/>
<path d="M27.0004 37.4971C26.8164 37.4971 26.6394 37.3956 26.5524 37.2196C26.4294 36.9721 26.5304 36.6721 26.7774 36.5491L27.7774 36.0521C28.0264 35.9281 28.3254 36.0301 28.4479 36.2771C28.5709 36.5246 28.4699 36.8246 28.2229 36.9476L27.2229 37.4446C27.1509 37.4806 27.0749 37.4971 27.0004 37.4971Z" fill="#7F56D9"/>
<path d="M26.9996 37.497C26.9251 37.497 26.8486 37.4805 26.7771 37.4445L25.7771 36.9455C25.5301 36.8225 25.4296 36.522 25.5531 36.275C25.6761 36.0285 25.9761 35.9265 26.2236 36.051L27.2236 36.55C27.4706 36.673 27.5711 36.9735 27.4476 37.2205C27.3601 37.3955 27.1831 37.497 26.9996 37.497Z" fill="#7F56D9"/>
<path d="M36.4999 33.497C36.4054 33.497 36.3089 33.47 36.2239 33.4135L34.7229 32.4175C34.4929 32.265 34.4299 31.9545 34.5829 31.7245C34.7354 31.4945 35.0449 31.43 35.2759 31.5845L36.7769 32.5805C37.0069 32.733 37.0699 33.0435 36.9169 33.2735C36.8209 33.4185 36.6619 33.497 36.4999 33.497Z" fill="#7F56D9"/>
<path d="M36.4989 33.497C36.3369 33.497 36.1779 33.4185 36.0819 33.2735C35.9289 33.0435 35.9919 32.733 36.2219 32.5805L37.7229 31.5845C37.9529 31.43 38.2634 31.4945 38.4159 31.7245C38.5689 31.9545 38.5059 32.265 38.2759 32.4175L36.7749 33.4135C36.6899 33.47 36.5939 33.497 36.4989 33.497Z" fill="#7F56D9"/>
<path d="M15.5 33.499C14.379 33.499 13.5005 32.8405 13.5005 31.999C13.5005 31.7225 13.724 31.499 14.0005 31.499C14.277 31.499 14.5005 31.7225 14.5005 31.999C14.5005 32.203 14.8895 32.499 15.5 32.499C16.1105 32.499 16.5 32.203 16.5 31.999C16.5 31.7225 16.7235 31.499 17 31.499C17.2765 31.499 17.5 31.7225 17.5 31.999C17.5 32.8405 16.6215 33.499 15.5 33.499Z" fill="#7F56D9"/>
<path d="M34 11.5H18C17.7235 11.5 17.5 11.2765 17.5 11C17.5 10.7235 17.7235 10.5 18 10.5H34C34.2765 10.5 34.5 10.7235 34.5 11C34.5 11.2765 34.2765 11.5 34 11.5Z" fill="#7F56D9"/>
<path d="M34 20.5H18C17.7235 20.5 17.5 20.2765 17.5 20C17.5 19.7235 17.7235 19.5 18 19.5H34C34.2765 19.5 34.5 19.7235 34.5 20C34.5 20.2765 34.2765 20.5 34 20.5Z" fill="#7F56D9"/>
<path d="M34 18C32.6215 18 31.5 16.8785 31.5 15.5C31.5 14.1215 32.6215 13 34 13C34.2765 13 34.5 13.2235 34.5 13.5C34.5 13.7765 34.2765 14 34 14C33.173 14 32.5 14.673 32.5 15.5C32.5 16.327 33.173 17 34 17C34.2765 17 34.5 17.2235 34.5 17.5C34.5 17.7765 34.2765 18 34 18Z" fill="#7F56D9"/>
<path d="M34 20.5C33.7235 20.5 33.5 20.2765 33.5 20V17.5C33.5 17.2235 33.7235 17 34 17C34.2765 17 34.5 17.2235 34.5 17.5V20C34.5 20.2765 34.2765 20.5 34 20.5Z" fill="#7F56D9"/>
<path d="M34 14C33.7235 14 33.5 13.7765 33.5 13.5V11C33.5 10.7235 33.7235 10.5 34 10.5C34.2765 10.5 34.5 10.7235 34.5 11V13.5C34.5 13.7765 34.2765 14 34 14Z" fill="#7F56D9"/>
<path d="M18.001 18C17.7245 18 17.501 17.7765 17.501 17.5C17.501 17.2235 17.7245 17 18.001 17C18.828 17 19.501 16.327 19.501 15.5C19.501 14.673 18.828 14 18.001 14C17.7245 14 17.501 13.7765 17.501 13.5C17.501 13.2235 17.7245 13 18.001 13C19.3795 13 20.501 14.1215 20.501 15.5C20.501 16.8785 19.3795 18 18.001 18Z" fill="#7F56D9"/>
<path d="M18.001 20.5C17.7245 20.5 17.501 20.2765 17.501 20V17.5C17.501 17.2235 17.7245 17 18.001 17C18.2775 17 18.501 17.2235 18.501 17.5V20C18.501 20.2765 18.2775 20.5 18.001 20.5Z" fill="#7F56D9"/>
<path d="M18.001 14C17.7245 14 17.501 13.7765 17.501 13.5V11C17.501 10.7235 17.7245 10.5 18.001 10.5C18.2775 10.5 18.501 10.7235 18.501 11V13.5C18.501 13.7765 18.2775 14 18.001 14Z" fill="#7F56D9"/>
</g>
<defs>
<clipPath id="clip0_115_170">
<rect width="32" height="32" fill="white" transform="translate(10 10)"/>
</clipPath>
</defs>
</svg>
